<?xml version="1.0" encoding="UTF-8"?>
<svg id="Layer_2" data-name="Layer 2" xmlns="http://www.w3.org/2000/svg" xmlns:xlink="http://www.w3.org/1999/xlink" viewBox="0 0 609 478.67">
  <defs>
    <style>
      .cls-1 {
        fill: none;
      }

      .cls-2 {
        fill: gold;
        fill-rule: evenodd;
      }

      .cls-3 {
        clip-path: url(#clippath);
      }
    </style>
    <clipPath id="clippath">
      <rect class="cls-1" width="609" height="478.67"/>
    </clipPath>
  </defs>
  <g id="Layer_1-2" data-name="Layer 1">
    <g class="cls-3">
      <path class="cls-2" d="M260.31,473.62c3.58,1.52,5.24,2.79,4.93,3.51-.31.72-2.58.9-6.84.23-8.53-1.34-4.99-6.67,1.92-3.73ZM348.69,473.62c-3.58,1.52-5.24,2.79-4.93,3.51.31.72,2.58.9,6.85.23,8.52-1.34,4.99-6.67-1.92-3.73ZM304.51,385.47c-61.21,0-85.61,29.66-133.59,38.83-12.06,2.31-6.82,15.33,6.28,13.2,14.13-2.3,22.04-8.35,31.29-10.33,7.45-1.59,9.32,5.07,3.29,6.27-6.09,1.2-15.42,5.51-15.42,10.11,0,6.88,22.14,23.66,41.75,29.01,7.38,2.02,9.51-2.18,2.74-5.45-10.1-4.88-16.35-10.59-20.67-16-4.11-5.15.4-9.23,4.32-5.41,42.85,41.8,117.16,41.8,160.01,0,3.93-3.83,8.44.26,4.33,5.41-4.31,5.41-10.57,11.12-20.67,16-6.77,3.27-4.63,7.46,2.74,5.45,19.61-5.35,41.75-22.14,41.75-29.01,0-4.6-9.33-8.91-15.42-10.11-6.03-1.2-4.17-7.86,3.29-6.27,9.24,1.98,17.17,8.04,31.29,10.33,13.1,2.13,18.34-10.9,6.28-13.2-47.98-9.17-72.38-38.83-133.58-38.83ZM304.51,468.26c-16.39-.02-33.85-5.56-47.84-13.67-7.72-4.48-4.52-8.23,2.35-4.5,23.42,12.72,67.55,12.72,90.97,0,6.86-3.73,10.08.02,2.35,4.5-13.99,8.11-31.45,13.65-47.83,13.67ZM244.79,419.15c-8.47,2.76-9.89-1.89-3.33-4.59,23.5-9.7,50.56-12.53,63.03-12.53,19.82,0,44.93,5.04,63.06,12.53,6.56,2.7,5.14,7.35-3.34,4.59-34.61-11.29-84.8-11.29-119.42,0ZM289.92,179.34c-1.86-7.53-16.15-29.08-27.44-30.3-11.29-1.23-44.84,29.99-61.3,49.43s-10.04,36.73,5.02,46.07c15.05,9.34,30.6,28.89,33.93,36.45,3.58,8.11,2.98,27.17,1.89,32.52-1.1,5.36-7.21,3.83-7.84-3.36-.63-7.19.18-18.23-5.02-27.83-4.8-8.86-29.39-26.14-43.51-28.89-38.98-7.61-44.14,126.21-21.46,159.09,2.98,4.33,13.6.02,12.4-5.41-7.28-32.83-9.83-68.08-5.47-85.08,3.09-12.07,10.37-8.45,8.58,2.18-2.54,15,1.69,55.93,9.67,79.32,1.16,3.42,16.59-3.41,15.88-7.1-5.17-26.52-5.53-51.38-3.95-61.6,1.28-8.31,9.48-7.49,8.94.61-.95,13.94,4.07,51.03,7.13,56.72,1.36,2.54,17.3-3.82,16.94-7.07-.68-6.25-2.51-29.26-1.46-42.27.56-6.95,8.59-6.47,8.31-.15-.34,7.66,3.74,36.34,5.21,39.04.98,1.82,20.5-3.06,19.94-5.93-.75-3.87-3.22-16.27-2.63-28.32.34-6.99,8.16-6.8,8.61-.84,1.39,18.02,4.24,25.44,5.31,27.63.45.94,18.67-1.48,20.39-3.31,1.72-1.84.64-12.58,1.53-19.69.42-3.3,2.7-4.95,4.98-4.95s4.56,1.65,4.97,4.95c.9,7.11-.19,17.85,1.54,19.69,1.72,1.83,19.94,4.25,20.39,3.31,1.06-2.19,3.92-9.61,5.31-27.63.46-5.95,8.28-6.15,8.61.84.59,12.06-1.88,24.45-2.63,28.32-.56,2.87,18.96,7.75,19.95,5.93,1.46-2.7,5.54-31.39,5.2-39.04-.28-6.32,7.75-6.8,8.31.15,1.05,13.01-.78,36.02-1.46,42.27-.35,3.25,15.58,9.6,16.94,7.07,3.06-5.69,8.09-42.78,7.14-56.72-.56-8.11,7.66-8.93,8.93-.61,1.57,10.23,1.21,35.09-3.95,61.6-.71,3.69,14.72,10.52,15.88,7.1,7.97-23.4,12.2-64.32,9.67-79.32-1.8-10.63,5.48-14.25,8.57-2.18,4.35,17,1.81,52.25-5.47,85.08-1.2,5.43,9.42,9.74,12.41,5.41,22.68-32.88,17.52-166.71-21.46-159.09-14.11,2.76-38.7,20.03-43.5,28.89-5.2,9.6-4.39,20.64-5.02,27.83s-6.74,8.72-7.84,3.36c-1.1-5.35-1.7-24.41,1.88-32.52,3.33-7.56,18.89-27.11,33.94-36.45,15.05-9.33,21.47-26.63,5.02-46.07-16.46-19.44-50.01-50.66-61.31-49.43-11.29,1.22-25.57,22.77-27.43,30.3-1.22,4.94-1.82,6.87,4.26,9.93,6.08,3.06,12.15,10.52,3.33,8.61-5.82-1.27-13.99-1.9-22.17-1.9s-16.35.63-22.18,1.9c-8.82,1.91-2.74-5.55,3.33-8.61,6.08-3.06,5.48-4.99,4.26-9.93ZM336.73,309.96c.45,5.84,7.19,6.31,7.47-.96.25-6.35.48-18.75,4.6-24.1,4.12-5.36-.96-5.55-5.27-1.63-4.31,3.92-7.69,15.08-6.8,26.69ZM272.27,309.96c-.44,5.84-7.18,6.31-7.47-.96-.25-6.35-.48-18.75-4.6-24.1-4.11-5.36.96-5.55,5.27-1.63,4.31,3.92,7.69,15.08,6.8,26.69ZM304.51,313.09c-2,0-3.99-2.31-3.83-6.91.29-7.74-2.3-23.63-6.8-26.97-4.51-3.35-2.59-6.79,1.05-5.83,4.39,1.15,6.98,1.73,9.57,1.73s5.18-.58,9.57-1.73c3.64-.96,5.56,2.48,1.05,5.83-4.5,3.34-7.09,19.23-6.8,26.97.17,4.6-1.82,6.91-3.82,6.91ZM185.91,291.64c-1.1,5.06-3.86,7.48-6.19,7.52-2.32.04-4.21-2.3-3.58-6.75,2.01-14.16,14.39-21.99,9.77-.77ZM423.1,291.64c1.1,5.06,3.85,7.48,6.18,7.52,2.33.04,4.22-2.3,3.58-6.75-2.01-14.16-14.38-21.99-9.77-.77ZM81.8,42.4c-3.83,4.54.46,9.72,7.13,2.91,6.67-6.81,13.56-14.01,19.31-16.99s7.9,1.99,2.76,5.73c-5.14,3.75-48.21,49.44-46.98,73.01,1.22,23.57,39.7,68.56,42.15,69.48,2.45.92,7.66-2.91,11.8-3.37,4.14-.46,4.6,3.52-1.84,8.72s-15.96,21.46-18.88,29.42.92,10.85,6.38,3.6c5.08-6.75,17.24-22.14,26.9-26.75,9.48-4.52,8.58,3.29,4.14,7.28-4.45,3.97-18.03,26.92-22.04,39.04-2.99,9.07,1.47,12.22,7.63,2.98,7.63-11.44,22.76-29.79,30.73-33.92,7.97-4.14,7.05,3.98,3.53,7.81s-16.82,28.39-21.46,46.15c-4.17,15.94,5.3,9.66,8.89,2.68,23.45-45.61,50.43-76.53,68.51-91.83,18.09-15.31,11.65-21.13-9.5-15.77-21.16,5.35-41.84,11.32-49.82,9.03-7.97-2.3-17.7-14.31-20.77-18.44-3.07-4.14-7.2-2.87-5.02,2.26,1.73,4.07,6.93,11.66,9.39,14.12,2.68,2.68-.16,7.19-6.36,1.53-5.76-5.26-27.13-34.29-26.36-46.83.77-12.55,16.57-41.31,34.03-47.29,12.53-4.3,60.39,16.68,68.97,21.73,8.58,5.05,12.11-.92,3.83-7.49-8.28-6.58-17.68-11.46-25.9-15.23-4.54-2.08-1.89-7.05,5.74-4.36,18.95,6.67,39.17,18.52,59.93,33.36,5.48,3.92,18.85,6.58,23.92-1.22,5.06-7.81,8.32-29.9,2.45-39.94-8.58-14.69-65.6-40.94-80.93-45.3-9.66-2.76-9.9,2.65-3.03,5.32,10.93,4.24,23.22,10.29,28.47,14.73,4.2,3.55,2.76,7.81-5.06,3.36-7.39-4.19-59.17-27.55-75.87-27.55s-43.69,22.52-56.8,38.03ZM527.2,42.4c3.84,4.54-.46,9.72-7.13,2.91-6.67-6.81-13.56-14.01-19.31-16.99s-7.9,1.99-2.76,5.73c5.14,3.75,48.2,49.44,46.98,73.01-1.23,23.57-39.7,68.56-42.15,69.48-2.45.92-7.66-2.91-11.8-3.37-4.14-.46-4.6,3.52,1.84,8.72s15.96,21.46,18.87,29.42c2.92,7.96-.92,10.85-6.38,3.6-5.08-6.75-17.24-22.14-26.91-26.75-9.47-4.52-8.58,3.29-4.14,7.28,4.44,3.97,18.03,26.92,22.04,39.04,2.99,9.07-1.48,12.22-7.63,2.98-7.63-11.44-22.76-29.79-30.73-33.92-7.97-4.14-7.05,3.98-3.53,7.81s16.82,28.39,21.46,46.15c4.17,15.94-5.3,9.66-8.89,2.68-23.45-45.61-50.43-76.53-68.51-91.83-18.09-15.31-11.65-21.13,9.5-15.77,21.15,5.35,41.85,11.32,49.82,9.03,7.97-2.3,17.7-14.31,20.77-18.44,3.07-4.14,7.21-2.87,5.02,2.26-1.73,4.07-6.92,11.66-9.39,14.12-2.68,2.68.15,7.19,6.36,1.53,5.77-5.26,27.14-34.29,26.36-46.83-.77-12.55-16.56-41.31-34.03-47.29-12.53-4.3-60.39,16.68-68.97,21.73-8.58,5.05-12.11-.92-3.83-7.49,8.28-6.58,17.68-11.46,25.91-15.23,4.54-2.08,1.89-7.05-5.75-4.36-18.95,6.67-39.16,18.52-59.93,33.36-5.47,3.92-18.85,6.58-23.91-1.22-5.06-7.81-8.32-29.9-2.45-39.94,8.58-14.69,65.6-40.94,80.93-45.3,9.66-2.76,9.9,2.65,3.03,5.32-10.93,4.24-23.22,10.29-28.47,14.73-4.21,3.55-2.76,7.81,5.06,3.36,7.39-4.19,59.16-27.55,75.87-27.55s43.68,22.52,56.79,38.03ZM304.51,257.28c-8.48,0-19.14-3.41-25.8-8.46-3.61-2.74-6.64.54-2.77,4.25.65.62,2.14,2.14,4.22,3.06,4.67,2.05,2.16,5.43-3.02,3.55-8.89-3.23-31.19-16.83-40.11-24.87-4.62-4.16-6.94-.31-3.47,3.64,9.6,10.92,26.08,19,33.03,22.95,2.86,1.62,1.97,5.34-4.19,3.21-8.18-2.82-36.26-18.57-42.28-30.66-6.24-12.55,13.22-33.85,23.42-34.92,15.8-1.65,34.87,49.23,60.98,49.23s45.18-50.89,60.97-49.23c10.2,1.07,29.67,22.37,23.42,34.92-6.02,12.08-34.1,27.83-42.29,30.66-6.16,2.13-7.05-1.59-4.19-3.21,6.95-3.95,23.42-12.03,33.02-22.95,3.47-3.94,1.15-7.8-3.47-3.64-8.92,8.04-31.22,21.64-40.11,24.87-5.18,1.88-7.69-1.51-3.02-3.55,2.08-.92,3.57-2.44,4.21-3.06,3.88-3.71.85-6.99-2.76-4.25-6.67,5.06-17.33,8.46-25.8,8.46ZM220.4,245.25c1.66,1.34,2,2.57,1.47,3.09s-1.93.33-3.72-1.18c-3.59-3.02-1.65-5.06,2.26-1.91ZM388.61,245.25c-1.67,1.34-2,2.57-1.47,3.09.53.52,1.92.33,3.72-1.18,3.59-3.02,1.65-5.06-2.25-1.91ZM341.21,241.96c-2.29,1.87-2.71,3.79-1.91,4.72.8.94,2.83.88,5.43-1.21,5.3-4.26,3.98-9.64-3.52-3.52ZM267.8,241.96c2.29,1.87,2.71,3.79,1.91,4.72-.8.94-2.82.88-5.42-1.21-5.3-4.26-3.98-9.64,3.52-3.52ZM222.41,197.57c3.64-3.48.82-8.44-3.84-5.09-8.31,5.99-19.85,22.71-19.39,31.44.33,6.21,5.26,12.04,8.78,14.68,4.47,3.35,5.89,1.67,1.71-3.2-3.38-3.94-5.03-8.44-4.55-12.82.77-6.93,9.45-17.5,17.29-25.01ZM386.6,197.57c-3.64-3.48-.82-8.44,3.84-5.09,8.31,5.99,19.85,22.71,19.39,31.44-.33,6.21-5.26,12.04-8.78,14.68-4.47,3.35-5.89,1.67-1.71-3.2,3.38-3.94,5.03-8.44,4.55-12.82-.77-6.93-9.46-17.5-17.29-25.01ZM304.51,239.36c-6.79,0-15.15-5.31-18.44-9.28-3.29-3.96-1.64-6.35,2.44-3.11,4.34,3.45,10.17,5.18,16,5.18s11.65-1.73,15.99-5.18c4.08-3.24,5.73-.85,2.44,3.11-3.29,3.97-11.65,9.28-18.44,9.28ZM45.89,193.62c3.99,4.02-.19,6.08-4.79,2.72-4.59-3.34-26.15-19.32-28.26-33.67-2.1-14.34,6.04-37.02,9.29-42.28,3.26-5.26-.77-9.76-5.94-3.16s-8.91,22.19-9.68,25.93c-.77,3.73-6.51,4.11-4.59-7.37,1.91-11.48,9.48-30.8,14.94-34.53,5.46-3.73,17.63,7.94,17.92,12.15.29,4.2-10.38,21-11.73,44.86-.55,9.78,9.72,22.14,22.84,35.34ZM563.11,193.62c-3.99,4.02.19,6.08,4.79,2.72,4.6-3.34,26.16-19.32,28.26-33.67,2.11-14.34-6.03-37.02-9.29-42.28-3.26-5.26.77-9.76,5.94-3.16,5.17,6.6,8.91,22.19,9.67,25.93.77,3.73,6.52,4.11,4.6-7.37s-9.48-30.8-14.94-34.53c-5.46-3.73-17.63,7.94-17.92,12.15-.29,4.2,10.38,21,11.73,44.86.55,9.78-9.72,22.14-22.84,35.34ZM428.17,178c-2.91-1.26-5.02,1.42-1.03,3.83,3.98,2.41,10.67,5.36,16.74,4.13,4.14-.84,3.46-3.3-.77-3.05-5.14.3-12.42-3.81-14.95-4.9ZM180.83,178c2.91-1.26,5.02,1.42,1.03,3.83-3.98,2.41-10.68,5.36-16.74,4.13-4.14-.84-3.46-3.3.77-3.05,5.14.3,12.42-3.81,14.95-4.9ZM328.4,178.16c-2.38,4.78,3.31,6.48,4.94,2.12,1.63-4.37,11.04-18.91,15.11-21.4,4.08-2.49-.56-4.89-4.26-2.1-3.7,2.79-11.13,11.99-15.79,21.38ZM280.6,178.16c2.38,4.78-3.31,6.48-4.93,2.12-1.63-4.37-11.04-18.91-15.12-21.4-4.07-2.49.57-4.89,4.27-2.1,3.7,2.79,11.12,11.99,15.78,21.38ZM427.72,166.14c-6.52-2.76-6.83,2.68-1.16,5.2s19.39,6.66,25.45,5.82c6.05-.84,9.89-2.3,9.89-4.29s-7.2.54-11.88.39c-4.68-.16-22.3-7.11-22.3-7.11ZM181.29,166.14c6.52-2.76,6.82,2.68,1.15,5.2s-19.39,6.66-25.44,5.82c-6.05-.84-9.89-2.3-9.89-4.29s7.2.54,11.88.39c4.67-.16,22.3-7.11,22.3-7.11ZM531.85,160.42c-6.71,7.58-2.08,11.69,5.35,3.3,3.25-3.67,14.59-16.13,17.7-28.54,1.26-5.01-2.19-7.24-5.15-1.81-2.95,5.44-8.71,16.65-17.9,27.05ZM77.15,160.42c6.7,7.58,2.08,11.69-5.35,3.3-3.25-3.67-14.59-16.13-17.7-28.54-1.26-5.01,2.2-7.24,5.15-1.81,2.96,5.44,8.71,16.65,17.9,27.05ZM198.05,165.17c-2.69.82-4.56.02-4.99-1.23-.43-1.25.57-2.94,3.61-3.9,6.19-1.94,10.23,2.42,1.39,5.13ZM410.95,165.17c2.7.82,4.56.02,4.99-1.23.43-1.25-.57-2.94-3.61-3.9-6.19-1.94-10.22,2.42-1.39,5.13ZM602.96,158.28c0-3.4,1.48-5.29,2.96-5.46,1.47-.18,2.93,1.35,2.89,4.8-.09,6.88-5.84,11.19-5.84.67ZM6.04,158.28c0-3.4-1.48-5.29-2.96-5.46-1.47-.18-2.94,1.35-2.89,4.8.09,6.88,5.84,11.19,5.84.67ZM109.67,154.55c2.84,3.86-.41,6.44-4.29,2.06-8.33-9.37-27.9-38.49-27.67-48.44.23-9.94,6.74-21.27,9.5-24.33,2.76-3.06,5.36-.84,2.53,4.59-2.84,5.43-4.72,15.61-4.37,20.2.78,10.22,14.19,32.15,24.3,45.92ZM499.33,154.55c-2.84,3.86.41,6.44,4.29,2.06,8.33-9.37,27.9-38.49,27.67-48.44-.23-9.94-6.74-21.27-9.51-24.33-2.76-3.06-5.36-.84-2.53,4.59,2.83,5.43,4.71,15.61,4.37,20.2-.78,10.22-14.19,32.15-24.3,45.92ZM285.11,147.68c-2.16-.67-5.81,2.3.84,5.64,9.95,5.01,27.14,5.01,37.09,0,6.66-3.34,3-6.31.84-5.64-8.54,2.65-30.23,2.65-38.78,0ZM375.78,149.21c-4.01-1.99-5.99-4.05-5.71-5.2.27-1.16,2.8-1.42,7.81.19,7.49,2.4,3.87,7.98-2.09,5.02ZM233.22,149.21c4.02-1.99,5.99-4.05,5.72-5.2-.27-1.16-2.8-1.42-7.8.19-7.49,2.4-3.88,7.98,2.08,5.02ZM290.76,122.04c6.59.97,4.28,7.78-3.59,5.88-5.64-1.36-5.08,3.13-2.2,4.3,10.71,4.4,28.38,4.4,39.08,0,2.88-1.18,3.44-5.67-2.2-4.3-7.88,1.9-10.19-4.91-3.6-5.88,9.39-1.38,22.77-6.15,27.26-8.95,4.72-2.94,9.46,1.05,1.21,6.2-2.92,1.82-6.78,3.31-10.69,4.52-6.52,2.01-5.17,6.79.71,5.07,6.17-1.81,7.42,3.02-.62,6.55-20.01,8.78-43.22,8.78-63.22,0-8.04-3.53-6.79-8.36-.63-6.55,5.89,1.72,7.23-3.06.72-5.07-3.92-1.21-7.77-2.69-10.7-4.52-8.25-5.15-3.51-9.14,1.21-6.2,4.48,2.8,17.87,7.57,27.26,8.95ZM122.93,128.98c1.84,2.83,1.54,5.24.24,6.15-1.29.91-3.58.32-5.68-2.85-4.3-6.47-.6-12.55,5.44-3.29ZM486.07,128.98c-1.84,2.83-1.54,5.24-.24,6.15,1.29.91,3.58.32,5.68-2.85,4.29-6.47.6-12.55-5.44-3.29ZM389.92,122.42c3.68,5.25,12.87,12.27,23.93,13.02,16.54,1.14,26.5-9.7,25.42-24.89s11.14-15.6,16.79-17.76c5.65-2.16,4.15-5.97-5.98-4.15-10.14,1.82-23.27,7.55-25.18,11.78-1.91,4.23,3.91,18.5-7.56,21.07-5.07,1.14-10.66-2.01-14.28-6.2-3.71-4.28-6.55-1.01-4.13,2.34,1.34,1.86,6.76,6.42,8.46,7.28,4.2,2.12,2.68,4.89-1.41,3.55-3.33-1.09-8.89-4.83-11.79-8.53-3.14-3.99-7.02-1.46-4.27,2.47ZM219.08,122.42c-3.68,5.25-12.87,12.27-23.93,13.02-16.54,1.14-26.51-9.7-25.43-24.89,1.08-15.18-11.13-15.6-16.78-17.76-5.65-2.16-4.16-5.97,5.98-4.15,10.14,1.82,23.27,7.55,25.18,11.78,1.91,4.23-3.9,18.5,7.56,21.07,5.07,1.14,10.66-2.01,14.28-6.2,3.71-4.28,6.55-1.01,4.13,2.34-1.34,1.86-6.76,6.42-8.46,7.28-4.2,2.12-2.69,4.89,1.42,3.55,3.32-1.09,8.88-4.83,11.79-8.53,3.14-3.99,7.02-1.46,4.27,2.47ZM430.4,113.34c.05,5.16-2.64,8.94-6.91,11.11-3.65,1.85-2.34,4.73,2.35,3.15,4.68-1.57,7.99-7.42,7.54-13.31-.33-4.41-3.03-6.26-2.98-.95ZM178.61,113.34c-.05,5.16,2.64,8.94,6.91,11.11,3.65,1.85,2.33,4.73-2.35,3.15-4.69-1.57-7.99-7.42-7.55-13.31.34-4.41,3.04-6.26,2.99-.95ZM296.12,106.24c.76-7.31,5.59-15.65,4.84-34.42-.45-11.09,7.54-11.09,7.09,0-.76,18.77,4.08,27.11,4.84,34.42,1.09,10.65-17.85,10.65-16.77,0ZM322.85,57.57c1.4-4.36-3.52-6.29-6.02.9-6.33,18.26-.59,37.9,4.4,44.73,3.91,5.35,10.76,3.92,7.37-2.86-3.27-6.56-11.48-24.88-5.74-42.77ZM286.15,57.57c-1.4-4.36,3.53-6.29,6.02.9,6.33,18.26.59,37.9-4.39,44.73-3.91,5.35-10.76,3.92-7.38-2.86,3.27-6.56,11.49-24.88,5.75-42.77ZM226.96,102.15c5.38,2.52,9.15,2.87,10.13,1.63.97-1.23-.84-4.07-6.63-7.93-8.67-5.78-11.49,2.57-3.49,6.3ZM382.05,102.15c-5.38,2.52-9.15,2.87-10.13,1.63-.97-1.23.84-4.07,6.63-7.93,8.67-5.78,11.48,2.57,3.49,6.3ZM264.17,75.11c.91-3.01,6.13.23,2.99,8.11-2.3,5.76-8.89,5.35-16.63.23-5.85-3.88-20.7-12.09-30.35-16.99-6.54-3.32-3.09-5.64,2.34-3.77,20.84,7.19,38.8,21.91,41.65,12.41ZM344.83,75.11c-.9-3.01-6.13.23-2.99,8.11,2.3,5.76,8.89,5.35,16.63.23,5.85-3.88,20.71-12.09,30.35-16.99,6.54-3.32,3.09-5.64-2.34-3.77-20.84,7.19-38.8,21.91-41.66,12.41ZM540.48,58.45c2.93,4.17,3.79,7.3,2.88,8.3-.9,1.01-3.57-.1-7.69-4.42-6.18-6.45.47-10.07,4.81-3.89ZM68.53,58.45c-2.92,4.17-3.78,7.3-2.88,8.3s3.57-.1,7.69-4.42c6.18-6.45-.47-10.07-4.81-3.89ZM168.74,55.42c8.05,2.22,5.92,7.84-.14,5.84-8.89-2.93-16.76-3.48-17.63-5.51-.69-1.63,8.29-2.96,17.76-.33ZM440.27,55.42c-8.06,2.22-5.92,7.84.13,5.84,8.9-2.93,16.77-3.48,17.63-5.51.69-1.63-8.29-2.96-17.76-.33ZM236.28,37.2c4.01,2.33,5.68,4.7,5.17,5.85-.52,1.16-3.21,1.11-7.92-1.38-7.97-4.21-5.27-9.16,2.76-4.47ZM372.72,37.2c-4.01,2.33-5.67,4.7-5.16,5.85.52,1.16,3.21,1.11,7.92-1.38,7.97-4.21,5.27-9.16-2.76-4.47ZM328.29,33.28c4.52-3.06,5.32-6.16,4.05-7.59-1.27-1.44-4.6-1.2-8.34,2.4-7.21,6.93-5.21,11.61,4.29,5.19ZM280.71,33.28c-4.52-3.06-5.31-6.16-4.05-7.59,1.27-1.44,4.6-1.2,8.34,2.4,7.2,6.93,5.2,11.61-4.3,5.19ZM126.35,16.71c4.55-2.86,7.71-2.77,8.66-1.42s-.32,3.95-4.6,6.11c-8.57,4.32-12.21.43-4.06-4.69ZM482.65,16.71c-4.55-2.86-7.71-2.77-8.66-1.42s.32,3.95,4.6,6.11c8.57,4.32,12.21.43,4.06-4.69ZM173.78.61c-4.78-.74-7.8-.17-8.28,1.02-.48,1.19,1.58,2.99,6.98,4.69,8.09,2.55,8.39-4.61,1.3-5.71ZM435.22.61c4.78-.74,7.8-.17,8.28,1.02.48,1.19-1.58,2.99-6.98,4.69-8.09,2.55-8.39-4.61-1.3-5.71Z"/>
    </g>
  </g>
</svg>